<svg xmlns="http://www.w3.org/2000/svg" width="748" height="89.552" viewBox="0 0 748 89.552">
  <defs>
    <style>
      .cls-1 {
        fill: #da2128;
      }

      .cls-2 {
        fill: #c1890e;
      }
    </style>
  </defs>
  <title>Logo_Elternbildung-Portal_RGB</title>
  <g id="Ebene_3" data-name="Ebene 3">
    <path class="cls-1" d="M168,35.726c-8.367,6.733-12.488,6.923-21.465.821-4.379-2.976-8.607-6.173-12.965-9.179-11.378-7.849-23.194-8.609-35.41-2.026-5.9,3.178-10.86,7.771-16.685,11.051-6.295,3.546-12.8,4.155-19.25-.122-4.117-2.728-7.69-6.147-11.742-8.936A32.873,32.873,0,0,0,26.6,21.9a35.544,35.544,0,0,0-15.888,6.921A63.328,63.328,0,0,0,1,37.2c.525.563.762.156.97.056a4.9,4.9,0,0,0,1.11-.8c5.824-5.277,12.3-9.425,19.95-11.538,4.233-1.169,8.493-1.852,12.8-.316l-.037-.035c.908.128,1.8.182,2.725.4,7.109,1.708,12.409,6.325,17.683,10.918,8.006,6.97,16.316,8.828,26.151,3.905,4.7-2.353,8.677-5.779,12.969-8.74,4.971-3.431,10.325-6.147,16.389-6.873,7.536-.9,14.243,1.493,20.543,5.557,6.042,3.9,11.627,8.521,18.314,11.415,8.08,3.5,13.924-.578,19.381-6.42C169.048,34.688,168.572,35.262,168,35.726Z"/>
    <path class="cls-2" d="M123.036,61.992c-.113-1.023-.226-2.043-.328-3.064-.635-6.411-1.717-12.849-2.77-18.894L119.7,38.62a49.873,49.873,0,0,0-3.024-11.791c-.054-.125-.105-.253-.155-.379a2.661,2.661,0,0,0-2.53-2.095,3.7,3.7,0,0,0-3.618,2.143,36.363,36.363,0,0,0-1.84,4.474l-.167.464a265.605,265.605,0,0,0-8.905,31.947l-.32,1.408a47.665,47.665,0,0,0-1.483,9.289l-.114,4.146,1.405-3.9c2.262-6.283,4.329-12.768,6.33-19.039,2.489-7.8,5.056-15.851,8.088-23.84,2.086,8.261,3.671,16.509,5.207,24.507,1.166,6.064,2.37,12.336,3.767,18.441l1,4.356.316-4.457A67.856,67.856,0,0,0,123.036,61.992Z"/>
    <path class="cls-2" d="M45.639,10.834a9.9,9.9,0,0,0-6.576-8.558,10.29,10.29,0,0,0-11.1,1.773L26.733,5.111l1.617-.189c.526-.062,1.023-.114,1.5-.164.982-.1,1.909-.2,2.816-.352a7.936,7.936,0,0,1,7.926,4.24c1.435,2.882,1.112,4.06-1.918,7a4.675,4.675,0,0,1-6.277.371c-2.128-1.48-2.636-3.264-1.6-5.615a7.76,7.76,0,0,1,4.051-4.029L36.7,5.479l-2.061-.052a7.719,7.719,0,0,0-6.265,3.416,7.141,7.141,0,0,0-1.327,6.436A9.677,9.677,0,0,0,35.826,21.2a9.23,9.23,0,0,0,2.537-.362C42.769,19.578,46.032,15.089,45.639,10.834Z"/>
    <path class="cls-2" d="M118.018,6.167a7.75,7.75,0,0,0-5.947-1.67,6.318,6.318,0,0,0-4.46,2.437l-.538.761.9-.249c4.414-1.228,7.575-.161,9.133,3.086a3.833,3.833,0,0,1-1.254,5.106c-1.931,1.408-3.7,1.306-5.583-.324-1.655-1.437-.96-2.811-.155-4.4l.194-.389a4.678,4.678,0,0,1,1.019-1.228,6.847,6.847,0,0,0,1.047-1.181l.452-.693-.806.187c-.22.051-.448.086-.676.122a4.4,4.4,0,0,0-1.56.443,7.554,7.554,0,0,0-3.411,5.014,5,5,0,0,0,.739,4.074,8.749,8.749,0,0,0,5.8,3.3,7.517,7.517,0,0,0,.83.047,6.567,6.567,0,0,0,4.2-1.467c2.436-2,3.685-4.147,3.713-6.384C121.686,10.49,120.461,8.273,118.018,6.167Z"/>
    <path class="cls-2" d="M162.969,56.861a4.763,4.763,0,0,1-.2-.714,35.591,35.591,0,0,0-3.745-11.077,3.866,3.866,0,0,0-3.076-2.374h-.053c-1.176,0-2.208.869-2.909,2.455-1.939,4.377-2.148,9.1-2.351,13.671l-.062,1.377.656-.933a26.673,26.673,0,0,0,3-6.457,38.649,38.649,0,0,1,1.843-4.513l6.553,11.925.284-.563A3.231,3.231,0,0,0,162.969,56.861Z"/>
    <path class="cls-2" d="M161.339,30.42a7.286,7.286,0,0,0-5.74-3.294,5.363,5.363,0,0,0-4.637,2.338l-.671.947,1.071-.448c2.64-1.106,4.739-.563,6.8,1.764.968,1.091,1.077,2.137.307,3.129-.991,1.276-2.014,2.6-3.825,1.854-1.043-.428-2.107-1-2.074-2.029a4.736,4.736,0,0,1,2.556-4.055l.958-.572-1.114-.047a4.914,4.914,0,0,0-4.918,3.2,5.465,5.465,0,0,0,2.189,6.108,7.622,7.622,0,0,0,3.675,1.054,5.9,5.9,0,0,0,4.075-1.689C162.539,36.332,163.054,33.167,161.339,30.42Z"/>
    <path class="cls-2" d="M75.515,29.129a5.374,5.374,0,0,0-3.873-1.45h-.059A5.41,5.41,0,0,0,67.666,29.2l-.279.3.409-.019c3.338-.15,4.574.258,5.738,1.895.927,1.305.461,2.135-.656,3.126-1.06.939-1.952,1.035-2.892.307-1.093-.844-.737-1.839-.326-2.992l.063-.176a1.187,1.187,0,0,1,.6-.562c.38-.224.811-.479.757-1.137l-.013-.162-.162.009a3.914,3.914,0,0,0-3.9,2.53,3.718,3.718,0,0,0,.361,4.083,5.047,5.047,0,0,0,3.556,1.926,6.676,6.676,0,0,0,.808.05,5.539,5.539,0,0,0,3.595-1.222,5.276,5.276,0,0,0,1.737-3.784A5.71,5.71,0,0,0,75.515,29.129Z"/>
    <path class="cls-2" d="M73.934,44.589a2.993,2.993,0,0,0-2.312-1.415h0A2.669,2.669,0,0,0,69.5,44.443a13.147,13.147,0,0,0-2.817,9.281l.027.3.239-.184a13.747,13.747,0,0,0,3.155-3.8A21.162,21.162,0,0,1,71.6,47.9a22.044,22.044,0,0,1,1.509,2.353,14.588,14.588,0,0,0,2.706,3.67l.235.211.042-.313A15.131,15.131,0,0,0,73.934,44.589Z"/>
    <g>
      <path class="cls-1" d="M212.99,23.76v6.484h-18.1v8.871h15.459V45.5H194.886v9.182h17.949V61.11H187.312V23.76Z"/>
      <path class="cls-1" d="M225.8,61.11h-7.315V21.529H225.8Z"/>
      <path class="cls-1" d="M241,52.24c0,2.334,1.66,3.008,3.528,3.008a16.525,16.525,0,0,0,3.891-.622V60.85a42.813,42.813,0,0,1-7.678.83c-3.683,0-7.055-1.192-7.055-6.847V38.908h-3.527V34.135l8.092-7.781h2.7v6.328h8.559v6.226H241Z"/>
      <path class="cls-1" d="M278.039,59.916a38.785,38.785,0,0,1-11.361,1.816c-9.39,0-14.37-4.616-14.37-14.836,0-10.012,5.292-14.836,13.747-14.836,9.909,0,12.5,6.38,12.5,13.539v3.269H259.934c.052,4.772,3.268,6.484,8.559,6.484a36.825,36.825,0,0,0,9.546-1.712Zm-6.952-16.288c-.052-2.646-.882-5.862-5.5-5.862-3.683,0-5.654,2.7-5.654,5.862Z"/>
      <path class="cls-1" d="M301.277,40.048a45.475,45.475,0,0,0-10.116,3.165v17.9h-7.314V32.682H290.8V37.3c2.957-1.919,6.121-4.617,10.479-4.773Z"/>
      <path class="cls-1" d="M323.27,61.11V41.968c0-2.179-.83-3.32-3.216-3.32-2.127,0-4.928,1.193-7.418,2.49V61.11h-7.315V32.682h6.848v3.009h.208c3.475-2.127,6.9-3.631,9.908-3.631,5.084,0,8.3,2.49,8.3,8.508V61.11Z"/>
      <path class="cls-1" d="M348.065,61.732a43.3,43.3,0,0,1-11.153-1.66V21.529h7.314V34.6a17.592,17.592,0,0,1,8.819-2.542c5.343,0,10.375,3.838,10.375,14.11C363.42,58.1,356.365,61.732,348.065,61.732Zm2.49-23.292a14.017,14.017,0,0,0-6.329,1.972V55.3a19.972,19.972,0,0,0,4.1.415c5.447,0,7.626-2.905,7.626-9.131C355.95,41.138,354.135,38.44,350.555,38.44Z"/>
      <path class="cls-1" d="M376.024,29.206H368.5V22.359h7.522Zm-.1,31.9h-7.314V32.682h7.314Z"/>
      <path class="cls-1" d="M389.978,61.11h-7.314V21.529h7.314Z"/>
      <path class="cls-1" d="M409.793,32.06a36.109,36.109,0,0,1,4.618.363V21.529h7.262V61.11h-5.966c-.1-.156-.57-1.66-.674-1.868a17.033,17.033,0,0,1-8.508,2.386c-5.862,0-11.308-3.682-11.308-13.954C395.217,35.691,401.6,32.06,409.793,32.06Zm-1.5,23.344a14.385,14.385,0,0,0,6.07-1.764V38.492a20.686,20.686,0,0,0-3.788-.363c-5.446,0-7.884,2.646-7.884,9.13C402.687,52.914,404.813,55.4,408.289,55.4Z"/>
      <path class="cls-1" d="M435.417,32.682V51.824c0,2.179.83,3.32,3.217,3.32,2.075,0,4.98-1.141,7.419-2.49V32.682h7.314V61.11h-6.278l-.57-2.957h-.208c-3.527,2.127-6.9,3.579-9.908,3.579-5.084,0-8.3-2.49-8.3-8.456V32.682Z"/>
      <path class="cls-1" d="M477.954,61.11V41.968c0-2.179-.83-3.32-3.216-3.32-2.127,0-4.928,1.193-7.418,2.49V61.11h-7.315V32.682h6.848v3.009h.207c3.476-2.127,6.9-3.631,9.909-3.631,5.083,0,8.3,2.49,8.3,8.508V61.11Z"/>
      <path class="cls-1" d="M502.7,32.06c2.9,0,6.172.622,9.752.622a32.553,32.553,0,0,0,6.277-.57V37.87c-1.557,0-3.527-.052-5.395-.052a6.36,6.36,0,0,1,1.972,4.824c0,6.848-5.552,9.39-12.348,9.39a24.806,24.806,0,0,1-3.682-.208,3.868,3.868,0,0,0-.622,2.024c0,1.088.57,1.918,2.074,1.918h8.3c4.824,0,9.026,1.3,9.026,7.367,0,6.381-5.966,9.233-15.822,9.233-8.558,0-12.45-2.282-12.45-6.9,0-2.646,1.09-4.98,4.722-6.122v-.311A4.522,4.522,0,0,1,492.27,55.3a5.682,5.682,0,0,1,2.8-4.824,8.346,8.346,0,0,1-4.876-7.99C490.2,36.106,494.812,32.06,502.7,32.06Zm-1.454,29.258c-2.074.155-3.942.934-3.942,3.268,0,2.282,1.92,2.749,5.914,2.749,4.72,0,7.262-.831,7.262-3.475,0-1.764-1.192-2.542-3.008-2.542Zm1.558-23.6c-3.736,0-5.188,1.816-5.188,4.669S499.066,47,502.8,47c3.682,0,5.134-1.66,5.134-4.669C507.936,39.53,506.484,37.714,502.8,37.714Z"/>
      <path class="cls-1" d="M521.993,43.888h22.1v5.965h-22.1Z"/>
      <path class="cls-1" d="M558.667,50.528V61.11h-7.574V23.76h14.318c7.937,0,12.968,6.069,12.968,13.436,0,7.314-5.031,13.332-12.709,13.332Zm0-6.433h5.862c4.409,0,6.121-3.476,6.121-6.9,0-3.528-1.712-6.952-6.121-6.952h-5.862Z"/>
      <path class="cls-1" d="M595.551,61.732c-8.094,0-14.422-4.461-14.422-14.836,0-10.323,6.328-14.836,14.422-14.836,8.144,0,14.472,4.616,14.472,14.836S603.7,61.732,595.551,61.732Zm.05-23.4c-4.928,0-7,3.113-7,8.56,0,5.5,2.074,8.612,7,8.612s6.952-3.113,6.952-8.612C602.553,41.449,600.531,38.336,595.6,38.336Z"/>
      <path class="cls-1" d="M632.588,40.048a45.443,45.443,0,0,0-10.116,3.165v17.9h-7.314V32.682h6.951V37.3c2.957-1.919,6.121-4.617,10.479-4.773Z"/>
      <path class="cls-1" d="M645.14,52.24c0,2.334,1.66,3.008,3.528,3.008a16.517,16.517,0,0,0,3.89-.622V60.85a42.8,42.8,0,0,1-7.677.83c-3.684,0-7.055-1.192-7.055-6.847V38.908H634.3V34.135l8.093-7.781h2.7v6.328h8.56v6.226H645.14Z"/>
      <path class="cls-1" d="M673.515,43.784V41.916c0-2.282-1.4-3.839-5.914-3.839a37.653,37.653,0,0,0-9.233,1.3V33.253a56.969,56.969,0,0,1,11.049-1.193c7.108,0,11.464,3.424,11.464,10.323V61.11h-6.276l-.518-2.957h-.208a15.879,15.879,0,0,1-9.026,3.371c-4.929,0-8.872-3.008-8.872-9.026,0-5.342,3.892-8.714,10.842-8.714Zm0,4.824h-5.5c-3.216,0-4.669,1.193-4.669,3.32,0,2.386,1.66,3.528,3.943,3.528a11.951,11.951,0,0,0,6.224-1.972Z"/>
      <path class="cls-1" d="M694.626,61.11h-7.314V21.529h7.314Z"/>
      <path class="cls-1" d="M705.38,61.11h-4.948V55.165h4.948Z"/>
      <path class="cls-1" d="M722.339,47.783V46.346c0-1.756-1.078-2.952-4.549-2.952a28.887,28.887,0,0,0-7.1,1V39.683a43.77,43.77,0,0,1,8.5-.918c5.465,0,8.818,2.634,8.818,7.941v14.4h-4.828l-.4-2.275h-.16a12.213,12.213,0,0,1-6.942,2.594c-3.792,0-6.824-2.314-6.824-6.942,0-4.11,2.993-6.7,8.339-6.7Zm0,3.711h-4.23c-2.474,0-3.591.917-3.591,2.554,0,1.835,1.277,2.713,3.032,2.713a9.2,9.2,0,0,0,4.789-1.517Z"/>
      <path class="cls-1" d="M739.456,54.287c0,1.8,1.277,2.314,2.714,2.314a12.684,12.684,0,0,0,2.992-.479V60.91a32.932,32.932,0,0,1-5.906.639c-2.833,0-5.425-.919-5.425-5.267V44.032h-2.714V40.361l6.224-5.985h2.075v4.868H746v4.788h-6.544Z"/>
    </g>
    <path class="cls-2" d="M46.948,67.683c-.132-.958-.265-1.916-.39-2.875A248.227,248.227,0,0,0,41.249,36.1,54.348,54.348,0,0,0,39.4,30.152h0c-.013-.034-.027-.068-.04-.1l-.032-.083q-.085-.227-.185-.451c-.836-2.031-1.837-3.807-2.926-4.36-2.375-1.206-4.65.958-5.879,3.175a107.411,107.411,0,0,0-6.662,15.787l-.424,1.18c-2.3,6.367-4.206,12.946-6.039,19.348-.172.562-.342,1.125-.515,1.687a81.877,81.877,0,0,0-3.227,12.99l-.944,6.917,4.475-11.133q2.29-5.7,4.575-11.4Q23.1,59.92,24.6,56.127q1.746-4.39,3.5-8.779l.43-1.077a85.658,85.658,0,0,1,6.314-13.422,91.67,91.67,0,0,1,3.641,13.136l.252,1.132q1.032,4.611,2.047,9.226.882,3.985,1.766,7.967Q43.89,70.3,45.241,76.294L47.872,88l.178-6.978A81.885,81.885,0,0,0,46.948,67.683Z"/>
  </g>
</svg>
