<svg xmlns="http://www.w3.org/2000/svg" width="50" height="47.917" viewBox="0 0 50 47.917"><defs><style>.cls-1{fill:#da2128;}</style></defs><title>abc</title><g id="Ebene_2" data-name="Ebene 2"><g id="Ebene_1-2" data-name="Ebene 1"><path class="cls-1" d="M17.708,25H5.205A5.233,5.233,0,0,0,0,30.208v12.5a5.238,5.238,0,0,0,5.208,5.2h12.5a5.237,5.237,0,0,0,5.205-5.2V30.2A5.233,5.233,0,0,0,17.708,25Zm3.125,17.7a3.146,3.146,0,0,1-3.125,3.129H5.212a3.146,3.146,0,0,1-3.129-3.125v-12.5a3.144,3.144,0,0,1,3.125-3.129H17.7a3.144,3.144,0,0,1,3.128,3.125Z"/><path class="cls-1" d="M44.792,25h-12.5a5.233,5.233,0,0,0-5.206,5.208v12.5a5.238,5.238,0,0,0,5.209,5.2H44.8a5.237,5.237,0,0,0,5.2-5.2V30.2A5.233,5.233,0,0,0,44.792,25Zm3.125,17.7a3.146,3.146,0,0,1-3.125,3.129H32.3a3.146,3.146,0,0,1-3.129-3.125v-12.5a3.144,3.144,0,0,1,3.125-3.129h12.5a3.144,3.144,0,0,1,3.128,3.125Z"/><path class="cls-1" d="M17.708,22.917h12.5a5.237,5.237,0,0,0,5.205-5.205V5.2A5.233,5.233,0,0,0,30.208,0H17.7a5.233,5.233,0,0,0-5.2,5.208v12.5A5.238,5.238,0,0,0,17.708,22.917ZM14.583,5.212a3.144,3.144,0,0,1,3.125-3.129h12.5a3.144,3.144,0,0,1,3.128,3.125V17.7a3.146,3.146,0,0,1-3.125,3.129h-12.5a3.146,3.146,0,0,1-3.129-3.125Z"/><path class="cls-1" d="M16.667,33.333A4.171,4.171,0,0,0,12.5,29.167H7.292A1.041,1.041,0,0,0,6.25,30.208v12.5A1.041,1.041,0,0,0,7.292,43.75H12.5a4.149,4.149,0,0,0,2.727-7.292A4.14,4.14,0,0,0,16.667,33.333Zm-2.084,6.25A2.086,2.086,0,0,1,12.5,41.667H8.333V37.5H12.5A2.085,2.085,0,0,1,14.583,39.583Zm-6.25-4.166V31.25H12.5a2.084,2.084,0,0,1,0,4.167Z"/><path class="cls-1" d="M18.336,18.665a1.042,1.042,0,0,0,1.37-.542l1.534-3.54H26.8L28.2,18.1a1.044,1.044,0,0,0,.968.655,1.027,1.027,0,0,0,.386-.075,1.041,1.041,0,0,0,.581-1.353l-1.673-4.184,0,0L25.134,4.822a1.041,1.041,0,0,0-.952-.655,1.173,1.173,0,0,0-.971.626l-5.417,12.5A1.045,1.045,0,0,0,18.336,18.665ZM24.128,7.916,25.962,12.5h-3.82Z"/><path class="cls-1" d="M43.226,40.092a5.43,5.43,0,0,1-3.643,1.575A5.209,5.209,0,1,1,39.6,31.25a5.018,5.018,0,0,1,3.42,1.367,1.041,1.041,0,1,0,1.46-1.485,6.891,6.891,0,0,0-4.793-1.965,7.292,7.292,0,1,0-.073,14.583,7.516,7.516,0,0,0,5.077-2.177,1.042,1.042,0,0,0-1.465-1.481Z"/></g></g></svg>