<svg id="Слой_1" data-name="Слой 1" xmlns="http://www.w3.org/2000/svg" width="280.967mm" height="280.967mm" viewBox="0 0 796.441 796.441">
  <defs>
    <style>
      .cls-1 {
        fill: #da212c;
      }
    </style>
  </defs>
  <title>account-r</title>
  <path class="cls-1" d="M800.441,402.22C800.441,182.645,621.812,4,402.22,4S4,182.645,4,402.22C4,514.505,50.9,615.888,125.91,688.35a24.3,24.3,0,0,0,6.271,5.7c71.057,65.8,165.781,106.389,270.039,106.389S601.2,759.853,672.26,694.052a24.3,24.3,0,0,0,6.271-5.7C753.543,615.888,800.441,514.505,800.441,402.22ZM402.22,53.778c192.143,0,348.443,156.316,348.443,348.442,0,81.468-28.316,156.329-75.338,215.732-21.588-69.617-83.216-124.116-166.859-149.193,45.582-32.989,75.4-86.435,75.4-146.828,0-100.025-81.472-181.4-181.643-181.4s-181.642,81.374-181.642,181.4c0,60.393,29.814,113.839,75.4,146.828C212.332,493.836,150.7,548.335,129.116,617.952c-47.023-59.4-75.338-134.264-75.338-215.732C53.778,210.094,210.078,53.778,402.22,53.778ZM270.355,321.931c0-72.576,59.144-131.622,131.865-131.622s131.866,59.046,131.866,131.622S474.942,453.554,402.22,453.554,270.355,394.507,270.355,321.931ZM170.946,662.125C178.428,570.868,275.2,503.331,402.22,503.331S626.013,570.868,633.5,662.125C571.9,717,491.014,750.663,402.22,750.663S232.542,717,170.946,662.125Z" transform="translate(-4 -4)"/>
</svg>
