<?xml version="1.0" encoding="iso-8859-1"?>
<!-- Generator: Adobe Illustrator 21.0.2, SVG Export Plug-In . SVG Version: 6.00 Build 0)  -->
<svg xmlns="http://www.w3.org/2000/svg" xmlns:xlink="http://www.w3.org/1999/xlink" version="1.1" id="Layer_1" x="0px" y="0px" viewBox="0 0 80 80" style="enable-background:new 0 0 80 80;" xml:space="preserve" width="240px" height="240px">
<polygon style="fill:none;stroke:#000000;stroke-width:2;stroke-miterlimit:10;" points="50,10 16,10 16,70 64,70 64,24 "/>
<polyline style="fill:none;stroke:#000000;stroke-width:2;stroke-miterlimit:10;" points="63,24 50,24 50,11 "/>
<circle cx="22" cy="26" r="1"/>
<circle cx="22" cy="30" r="1"/>
<circle cx="22" cy="34" r="1"/>
<circle cx="22" cy="38" r="1"/>
<circle cx="22" cy="22" r="1"/>
<circle cx="22" cy="42" r="1"/>
<circle cx="22" cy="46" r="1"/>
<circle cx="22" cy="50" r="1"/>
<circle cx="22" cy="18" r="1"/>
<circle cx="22" cy="54" r="1"/>
<circle cx="22" cy="14" r="1"/>
<circle cx="22" cy="58" r="1"/>
<circle cx="22" cy="62" r="1"/>
<circle cx="22" cy="66" r="1"/>
<line style="fill:none;stroke:#000000;stroke-width:2;stroke-miterlimit:10;" x1="28" y1="35" x2="55" y2="35"/>
<line style="fill:none;stroke:#000000;stroke-width:2;stroke-miterlimit:10;" x1="28" y1="41" x2="51" y2="41"/>
<line style="fill:none;stroke:#000000;stroke-width:2;stroke-miterlimit:10;" x1="28" y1="47" x2="55" y2="47"/>
<line style="fill:none;stroke:#000000;stroke-width:2;stroke-miterlimit:10;" x1="28" y1="53" x2="51" y2="53"/>
</svg>
