<?xml version="1.0" encoding="utf-8"?>
<!-- Svg Vector Icons : http://www.onlinewebfonts.com/icon -->
<!DOCTYPE svg PUBLIC "-//W3C//DTD SVG 1.1//EN" "http://www.w3.org/Graphics/SVG/1.1/DTD/svg11.dtd">
<svg version="1.1" xmlns="http://www.w3.org/2000/svg" xmlns:xlink="http://www.w3.org/1999/xlink" x="0px" y="0px" viewBox="0 0 1000 1000" enable-background="new 0 0 1000 1000" xml:space="preserve">
<metadata> Svg Vector Icons : http://www.onlinewebfonts.com/icon </metadata>
<g><g><path d="M964.4,471.6c-34.1-34.1-89.5-34.1-123.6,0L747.5,565c-26.7,26.7-32.5,66.5-17.3,98.9L696,698c-32.4-15.1-72.2-9.4-98.9,17.3l-93.4,93.4c-34.1,34.1-34.1,89.5,0,123.6c34.1,34.1,89.5,34.1,123.6,0l93.3-93.4c27.9-27.9,32.9-70,15.3-103l32.1-32.1c33.1,17.7,75.2,12.6,103.1-15.2l93.4-93.4C998.5,561.1,998.5,505.7,964.4,471.6z M692.2,810.4l-93.3,93.4c-18.3,18.3-48.2,18.3-66.6,0c-18.4-18.4-18.3-48.2,0-66.6l93.3-93.3c10.4-10.4,24.5-14.9,38.1-13.5l-24.9,24.9c-10.7,10.7-10.7,28.2,0,38.9c10.7,10.7,28.2,10.7,38.9,0l27.2-27.2C708.1,782.2,703.9,798.7,692.2,810.4z M935.9,566.7L842.6,660c-11.8,11.8-28.2,16-43.4,12.6l16.8-16.8c10.7-10.7,10.7-28.2,0-38.9c-10.7-10.7-28.1-10.7-38.9,0l-14.6,14.5c-1.4-13.6,3.1-27.7,13.5-38l93.4-93.4c18.3-18.3,48.2-18.3,66.6,0C954.3,518.5,954.3,548.3,935.9,566.7z M455.5,879.4c0.8,20.4,6.3,40.5,16.4,58.8c-119.9,4.1-226.3-35.1-317-118C72,744.5,25.4,649.4,12.8,538c-26.5-233.4,141-452.8,372.7-488.3c22.6-3.5,45.4-5.1,68.1-7.6c1.6,0,3.2,0,4.8,0c24.3,2.5,48.9,3.6,72.9,7.8c120.5,21,217,81.3,289.1,179.9c39.3,53.8,65.4,113.4,76.8,178c-25,5.2-47.9,17.4-66.4,35.8L789.6,485c-2.2-6.4-3.5-13.4-3.8-21c-0.8-20.8-4.3-25.1-25.6-29.8c-22.3-4.9-29.5-14.9-23.2-36.9c4.2-14.7,11.1-28.6,17.4-42.6c6.5-14.6,10.9-29,7.6-45.7c-3-14.9-2.6-30.2,11.1-42.7c-12.7-14.5-24.5-28.5-37-41.8c-5.9-6.2-10.9-4-12.7,4.8c-0.4,2.1-0.4,4.4-0.9,6.5c-4.6,19.5-16.7,24-32.4,12.1c-2.6-2-4.9-4.8-7.9-5.9c-5-1.7-10.6-4-15.5-3.1c-17,2.9-19.7,0.8-18.2-16c1.1-11.9-3.1-16.3-14.8-15.8c-4,0.2-8,1-12.1,1.1c-12.7,0.2-20.7-9.4-17.5-21.7c1.6-6.3,5.1-12.2,6.7-18.6c1.2-4.7,2.6-12.1,0.2-14.4c-9.7-9.5-20.2-18.7-31.6-25.9c-20.7-13-41.5-3.5-62.1,1.3c-2.2,16.8-4.5,19-20.5,14.3c-19-5.7-37.1-13.6-50.1-30c-1.6-2.1-5.5-3.7-8.1-3.4c-19.6,2.2-39.2,4.8-58.8,7.8c-2.8,0.5-7.2,4.2-7.2,6.4c0.1,3.8,2.6,10.2,4.9,10.7c6.3,1.1,13.7,1.1,19.6-1.2c8.1-3.1,15-9.2,22.8-13.2c9.5-4.7,16.4-1.2,19.1,9c3.2,12.2-1.1,22.5-11,28.8c-13.5,8.6-28.3,15.1-42.3,23c-9.8,5.5-19.9,10.9-28.6,17.9c-7,5.6-11.9,14.4-6.3,23.4c5.2,8.4,14.4,6.4,22,3.7c7.8-2.8,15.2-6.8,22.5-10.9c4.4-2.5,8.1-6.4,12.4-9c8.7-5.3,13.3-3.5,16.6,5.9c5.6,15.9,16.2,19.5,30.4,10.3c6.2-4,11.7-9,18.1-12.5c9.5-5.1,19.6,0.3,20.5,10.3c1.3,14.5,4.7,17.4,19.1,15.8c8.5-1,17-2.2,25.5-3.4c0.8,0.9,1.5,1.7,2.2,2.6c-3,5.5-4.7,12.6-9.2,16.2c-6.9,5.6-15.5,9.6-23.8,13.2c-12.1,5.2-23,8.3-23.4,9c0,0,17,6.9,8,9.4c-14.8,4.2-37.1,28.1-5,18.2c5.8-1.8,11.6-3.2,19.7-5.4c-6.8,20.3-21,28.3-35.2,35.9c-42.3,22.6-43.8,76.9-22.2,104.7c4.7,6,8.6,12.8,11.9,19.7c3.8,7.9,3.6,17.5-4.1,21.6c-5.1,2.8-15.4,2.2-20-1.3c-11.1-8.5-21.2-18.9-29.9-29.9c-11.1-14-19.1-30.6-30.9-44c-38-43-80.9-33.6-117.7-1.2c-9.3,8.2-8.1,15.6,2.2,22.4c3.6,2.4,7.6,4.4,11.7,6c16.3,6.6,32.7,12.9,49,19.5c3.3,1.3,6.8,2.9,9.6,5.2c5.7,4.5,6,9.4-1.4,12.3c-5.4,2.1-11.2,3.4-16.9,4.7c-10.7,2.3-22,3-32,7c-5.8,2.4-12.4,9.5-13.2,15.3c-0.7,4.9,5.8,11.6,10.5,16.1c3.5,3.3,9.3,4,13.7,6.7c6,3.7,12.5,7.2,17.2,12.3c7.9,8.6,13.5,10.7,23.8,5c9.9-5.5,19.4-11.7,29-17.8c11.3-7.2,13.5-6.3,20,5.3c8.1,14.4,19.3,26.3,37.5,23.1c13-2.3,25.3-8.3,38-12.6c8.6-2.9,17.1-7.2,25.9-8.2c18.1-2.2,32,13.2,33,34.4c1,21.2-8.8,37.1-23.8,50.9c-14.7,13.5-22.6,29-15.8,50c7.2,22.3-0.5,41.5-17.5,56.3c-11.9,10.3-25,19.3-38,28.1c-15.3,10.3-40.8,66.6-35.2,86.5c1.1,3.7,1.4,4.2,1.1,8.2c-1.5,21.2-12.3,17.4-31.2,20.7c-10.7,1.9-9.6-20.7-12.1-31.1c-2.3-9.9-2.3-21-0.8-31.1c1.5-10,6.2-19.5,9.6-29.1c7.2-20.2,2-37.5-12.9-52.2c-6.5-6.4-13.6-12.3-20.3-18.5c-24.3-22.7-36.1-51.3-37.4-84.1c-0.6-16.5,7.5-24,23.8-25.5c3.4-0.3,6.8-0.8,10.2-1.2c-1.9-13.7-6.9-18.9-20.3-19.8c-12.7-0.8-20.1-8-25-18.4c-2.3-4.9-2.7-10.6-4.6-15.7c-4.6-12.1-7.8-25.3-15-35.8c-6.4-9.5-11.7-17.6-11.5-29.6c0.1-5.6-3.9-12.1-7.8-16.8c-8.9-10.5-18.7-20.2-28.4-30c-3.8-3.8-8.4-6.9-14.7-12c-0.4,9.6-0.4,15.8-1,22c-0.9,8.7-1,17.8-3.8,25.9c-1.6,4.5-8.2,10.5-12,10.2c-4.8-0.5-11.8-5.9-13.1-10.6c-2.3-8.5-3-18.3-1.2-27c8.4-40.5,12-81.2,7.3-122.4c-1.7-15.1-3.8-30.1-5.9-46.9c-79.1,93.1-117,262.2-39.2,411.6C186.8,800.1,316.1,877.5,455.5,879.4z"/></g><g></g><g></g><g></g><g></g><g></g><g></g><g></g><g></g><g></g><g></g><g></g><g></g><g></g><g></g><g></g></g>
</svg>