<svg xmlns="http://www.w3.org/2000/svg" width="50" height="50" viewBox="0 0 50 50"><defs><style>.cls-1{fill:#da2128;}</style></defs><title>exit</title><g id="Ebene_2" data-name="Ebene 2"><g id="Ebene_1-2" data-name="Ebene 1"><path class="cls-1" d="M30.682,40.909a1.136,1.136,0,0,0-1.137,1.136v5.682H2.273V2.273H29.545v7.954a1.137,1.137,0,1,0,2.273,0V1.136A1.135,1.135,0,0,0,30.682,0H1.136A1.135,1.135,0,0,0,0,1.136V48.864A1.135,1.135,0,0,0,1.136,50H30.682a1.135,1.135,0,0,0,1.136-1.136V42.045A1.135,1.135,0,0,0,30.682,40.909Z"/><path class="cls-1" d="M48.864,25H12.971l9.423-9.424a1.136,1.136,0,0,0-1.607-1.607L9.425,25.332a1.149,1.149,0,0,0-.247.37,1.14,1.14,0,0,0,.247,1.239L20.787,38.3A1.136,1.136,0,0,0,22.394,36.7l-9.423-9.424H48.864a1.137,1.137,0,0,0,0-2.273Z"/></g></g></svg>