<svg xmlns="http://www.w3.org/2000/svg" width="50" height="49.999" viewBox="0 0 50 49.999"><defs><style>.cls-1{fill:#da2128;}</style></defs><title>info</title><g id="Ebene_2" data-name="Ebene 2"><g id="Ebene_1-2" data-name="Ebene 1"><g id="Gruppe_125" data-name="Gruppe 125"><g id="Linie_9" data-name="Linie 9"><path class="cls-1" d="M31.414,41.437H18.6a1.491,1.491,0,0,1,0-2.982H31.414a1.491,1.491,0,0,1,0,2.982Z"/></g><g id="Gruppe_124" data-name="Gruppe 124"><g id="Pfad_27" data-name="Pfad 27"><path class="cls-1" d="M25,50A25,25,0,0,1,25,0h.021A25.129,25.129,0,0,1,48.1,15.412a24.186,24.186,0,0,1,1.9,9.6A25.026,25.026,0,0,1,25,50ZM25,2.98A22.019,22.019,0,1,0,47.018,25a21.238,21.238,0,0,0-1.668-8.433A22.147,22.147,0,0,0,25.009,2.98Z"/></g><g id="Pfad_25" data-name="Pfad 25"><path class="cls-1" d="M25.006,40.368a1.491,1.491,0,0,1-1.49-1.491V22.208H20.733a1.49,1.49,0,0,1,0-2.98h4.273a1.49,1.49,0,0,1,1.49,1.49V38.877A1.491,1.491,0,0,1,25.006,40.368Z"/></g><g id="Gruppe_19" data-name="Gruppe 19"><g id="Pfad_26" data-name="Pfad 26"><path class="cls-1" d="M24.3,14.627c-.052,0-.1,0-.158-.005a1.014,1.014,0,0,1-.211,0,2.606,2.606,0,0,1-2.444-2.756,1,1,0,0,1,0-.22,2.6,2.6,0,0,1,2.7-2.437,2.5,2.5,0,0,1,.274,0A2.6,2.6,0,0,1,26.9,11.967a1.107,1.107,0,0,1,0,.212A2.608,2.608,0,0,1,24.3,14.627Zm-.161-1.659c.1,0,.124,0,.16,0a.949.949,0,0,0,.946-.89c0-.033,0-.183,0-.216a.949.949,0,0,0-.888-1c-.037,0-.18,0-.216,0a.947.947,0,0,0-1,.888c0,.035,0,.179,0,.215a.95.95,0,0,0,.889,1Z"/></g></g></g></g></g></g></svg>