<svg xmlns="http://www.w3.org/2000/svg" width="80" height="41.003" viewBox="0 0 80 41.003"><defs><style>.cls-1{fill:#da2128;}.cls-2{fill:#c1890e;}</style></defs><title>logo</title><g id="Ebene_2" data-name="Ebene 2"><g id="Ebene_1-2" data-name="Ebene 1"><path class="cls-1" d="M79.076,16.25c-3.962,3.188-5.913,3.278-10.164.389-2.073-1.41-4.075-2.923-6.139-4.347-5.388-3.716-10.983-4.076-16.767-.959-2.792,1.5-5.143,3.68-7.9,5.233-2.981,1.679-6.06,1.967-9.115-.058-1.949-1.292-3.642-2.911-5.56-4.231A15.564,15.564,0,0,0,12.123,9.7,16.833,16.833,0,0,0,4.6,12.979,30,30,0,0,0,0,16.946c.248.267.361.074.459.027a2.321,2.321,0,0,0,.526-.381,23.287,23.287,0,0,1,9.446-5.463,9.8,9.8,0,0,1,6.062-.15l-.018-.016c.43.06.854.086,1.291.191,3.366.809,5.875,2.995,8.373,5.169,3.791,3.3,7.726,4.181,12.383,1.85a52.837,52.837,0,0,0,6.141-4.139,17.335,17.335,0,0,1,7.76-3.254,14.423,14.423,0,0,1,9.728,2.631c2.861,1.845,5.505,4.035,8.672,5.4,3.826,1.656,6.593-.274,9.177-3.04C79.574,15.759,79.349,16.031,79.076,16.25Z"/><path class="cls-2" d="M57.787,28.687c-.054-.484-.108-.967-.156-1.451-.3-3.035-.813-6.083-1.312-8.946l-.115-.669a23.609,23.609,0,0,0-1.432-5.584c-.025-.059-.049-.12-.073-.179a1.262,1.262,0,0,0-1.2-.993,1.755,1.755,0,0,0-1.713,1.015A17.271,17.271,0,0,0,50.916,14l-.079.219a125.791,125.791,0,0,0-4.216,15.128l-.152.667a22.621,22.621,0,0,0-.7,4.4l-.054,1.963.665-1.847c1.071-2.975,2.05-6.046,3-9.015,1.178-3.695,2.394-7.506,3.83-11.289.987,3.912,1.738,7.817,2.465,11.6.552,2.872,1.123,5.842,1.784,8.733l.471,2.062.15-2.11A32.271,32.271,0,0,0,57.787,28.687Z"/><path class="cls-2" d="M21.137,4.463A4.688,4.688,0,0,0,18.023.411a4.873,4.873,0,0,0-5.254.839l-.584.5.766-.089c.249-.029.484-.054.709-.078.465-.049.9-.095,1.334-.167a3.76,3.76,0,0,1,3.753,2.008c.679,1.365.526,1.922-.909,3.315a2.212,2.212,0,0,1-2.972.176,1.93,1.93,0,0,1-.757-2.659,3.679,3.679,0,0,1,1.918-1.907l.879-.424L15.931,1.9A3.653,3.653,0,0,0,12.964,3.52a3.381,3.381,0,0,0-.628,3.048,4.581,4.581,0,0,0,4.155,2.805,4.348,4.348,0,0,0,1.2-.171A4.782,4.782,0,0,0,21.137,4.463Z"/><path class="cls-2" d="M55.41,2.253a3.675,3.675,0,0,0-2.816-.791,3,3,0,0,0-2.112,1.154l-.255.361.426-.118c2.09-.581,3.587-.076,4.325,1.461a1.816,1.816,0,0,1-.594,2.418,1.9,1.9,0,0,1-2.644-.153c-.784-.681-.455-1.332-.074-2.085l.093-.184a2.213,2.213,0,0,1,.482-.582,3.3,3.3,0,0,0,.5-.559l.214-.328-.382.088c-.1.024-.212.041-.32.058a2.079,2.079,0,0,0-.739.21A3.577,3.577,0,0,0,49.9,5.577a2.369,2.369,0,0,0,.35,1.929,4.144,4.144,0,0,0,2.747,1.563,3.727,3.727,0,0,0,.393.022A3.111,3.111,0,0,0,55.376,8.4a4.068,4.068,0,0,0,1.758-3.023A4.153,4.153,0,0,0,55.41,2.253Z"/><path class="cls-2" d="M76.7,26.258a2.234,2.234,0,0,1-.1-.338,16.855,16.855,0,0,0-1.774-5.246,1.828,1.828,0,0,0-1.456-1.123h-.025c-.557,0-1.046.412-1.378,1.163a17.578,17.578,0,0,0-1.113,6.474l-.029.651.31-.441a12.614,12.614,0,0,0,1.423-3.058,18.47,18.47,0,0,1,.873-2.137l3.1,5.647.135-.267A1.533,1.533,0,0,0,76.7,26.258Z"/><path class="cls-2" d="M75.923,13.738a3.445,3.445,0,0,0-2.717-1.56,2.539,2.539,0,0,0-2.2,1.107l-.318.448.507-.212a2.555,2.555,0,0,1,3.222.836,1.056,1.056,0,0,1,.145,1.481c-.469.605-.954,1.231-1.811.878-.494-.2-1-.476-.982-.961a2.242,2.242,0,0,1,1.21-1.92l.454-.271-.528-.022a2.327,2.327,0,0,0-2.329,1.515,2.589,2.589,0,0,0,1.037,2.892,3.6,3.6,0,0,0,1.74.5,2.79,2.79,0,0,0,1.929-.8A2.965,2.965,0,0,0,75.923,13.738Z"/><path class="cls-2" d="M35.284,13.126a2.543,2.543,0,0,0-1.833-.686h-.028a2.554,2.554,0,0,0-1.855.72l-.133.141.194-.009c1.581-.071,2.166.122,2.717.9.439.618.219,1.011-.311,1.48-.5.445-.924.491-1.369.146-.518-.4-.349-.871-.154-1.417l.029-.083a.565.565,0,0,1,.284-.266c.18-.106.384-.227.359-.539l-.006-.076-.077,0a1.853,1.853,0,0,0-1.847,1.2,1.76,1.76,0,0,0,.171,1.933,2.389,2.389,0,0,0,1.684.912,3.085,3.085,0,0,0,.382.024,2.62,2.62,0,0,0,1.7-.579,2.5,2.5,0,0,0,.823-1.791A2.706,2.706,0,0,0,35.284,13.126Z"/><path class="cls-2" d="M34.535,20.447a1.413,1.413,0,0,0-1.094-.67h0a1.262,1.262,0,0,0-1,.6A6.224,6.224,0,0,0,31.1,24.772l.013.143.113-.087a6.5,6.5,0,0,0,1.494-1.8,10.1,10.1,0,0,1,.708-1.016,10.45,10.45,0,0,1,.715,1.114,6.909,6.909,0,0,0,1.281,1.738l.111.1.02-.148A7.157,7.157,0,0,0,34.535,20.447Z"/><path class="cls-2" d="M21.757,31.382c-.062-.453-.125-.907-.184-1.361a117.741,117.741,0,0,0-2.514-13.594,25.881,25.881,0,0,0-.874-2.816h0c0-.017-.012-.033-.018-.049l-.016-.039c-.027-.072-.056-.143-.087-.214a4.21,4.21,0,0,0-1.386-2.065c-1.124-.571-2.2.454-2.784,1.5a50.9,50.9,0,0,0-3.154,7.476l-.2.558c-1.089,3.015-1.991,6.13-2.86,9.162-.081.266-.161.532-.243.8a38.627,38.627,0,0,0-1.528,6.151l-.447,3.275L7.579,34.9q1.086-2.7,2.167-5.4.717-1.794,1.43-3.589.828-2.079,1.658-4.157l.2-.511a40.568,40.568,0,0,1,2.989-6.355,43.344,43.344,0,0,1,1.724,6.22l.12.536q.488,2.184.969,4.369.417,1.887.836,3.772.633,2.838,1.273,5.675L22.2,41l.084-3.3A38.731,38.731,0,0,0,21.757,31.382Z"/></g></g></svg>