<svg xmlns="http://www.w3.org/2000/svg" width="50" height="28.114" viewBox="0 0 50 28.114"><defs><style>.cls-1{fill:#da2128;}</style></defs><title>paid</title><g id="Ebene_2" data-name="Ebene 2"><g id="Ebene_1-2" data-name="Ebene 1"><path class="cls-1" d="M20.869,11.127h0c-1.743,0-3.216-1-3.216-2.194s1.475-2.2,3.273-2.2a3.365,3.365,0,0,1,2.9,1.351.935.935,0,1,0,1.5-1.12,5.248,5.248,0,0,0-3.645-2.072V4.075a.935.935,0,0,0-1.87,0v.883c-2.3.391-4.029,2.023-4.029,3.974,0,2.208,2.216,4.011,4.964,4.063h0c1.743,0,3.216,1,3.216,2.194s-1.473,2.194-3.25,2.2a3.591,3.591,0,0,1-2.935-1.367.934.934,0,1,0-1.472,1.15A5.445,5.445,0,0,0,19.812,19.2v1.1a.935.935,0,1,0,1.87,0v-1.12c2.358-.353,4.151-2,4.151-3.989C25.833,12.981,23.617,11.179,20.869,11.127Z"/><path class="cls-1" d="M41.62,5.106V1.577A1.583,1.583,0,0,0,40.041,0H1.577A1.584,1.584,0,0,0,0,1.585V22.8a1.585,1.585,0,0,0,1.579,1.577h28.09A11.746,11.746,0,1,0,41.62,5.106ZM26.5,16.362a11.679,11.679,0,0,0,1.657,5.993H2.02V2.02H39.6V4.693A11.7,11.7,0,0,0,26.5,16.362Zm17.684-2.394-7.827,7.645-3.206-3.491A1.125,1.125,0,0,1,34.8,16.6l1.636,1.783,6.167-6.024a1.125,1.125,0,0,1,1.573,1.609Z"/></g></g></svg>