<svg xmlns="http://www.w3.org/2000/svg" width="50" height="59.724" viewBox="0 0 50 59.724"><defs><style>.cls-1{fill:#da2128;}</style></defs><title>pdf</title><g id="Ebene_2" data-name="Ebene 2"><g id="Ebene_1-2" data-name="Ebene 1"><path class="cls-1" d="M50,16.493a1.845,1.845,0,0,0-.523-1.3c-.015-.016-.021-.038-.036-.054L34.856.559C34.84.544,34.818.538,34.8.523A1.845,1.845,0,0,0,33.505,0H1.91A1.911,1.911,0,0,0,0,1.91v55.9a1.911,1.911,0,0,0,1.91,1.911H48.09A1.91,1.91,0,0,0,50,57.813ZM35.416,6.522l8.059,8.06H35.416ZM3.821,55.9V3.821H31.6V16.493a1.911,1.911,0,0,0,1.91,1.91H46.177l0,37.5Z"/><path class="cls-1" d="M39.667,33.323a3.623,3.623,0,0,0-3.2-2.095,28.423,28.423,0,0,0-9.634,1.248,28.238,28.238,0,0,1-4.61-2.992c-.707-.566-1.389-1.159-2.039-1.778a41.222,41.222,0,0,0-1.964-9.117,2.693,2.693,0,0,0-2.215-1.974,3.44,3.44,0,0,0-3.1,5.29A33.306,33.306,0,0,0,18.161,28.7a32.948,32.948,0,0,1-.262,8.1,36.268,36.268,0,0,0-7.1,6.238,3.031,3.031,0,0,0,1.823,5.174,3.561,3.561,0,0,0,.552.044,3.775,3.775,0,0,0,2.95-1.488A21.92,21.92,0,0,0,19.8,38.1a33.821,33.821,0,0,1,5.976-3.009c.3-.114.594-.224.895-.327a30.433,30.433,0,0,0,3.468,1.409,37.527,37.527,0,0,0,6.359,1.539,2.887,2.887,0,0,0,2.845-1.023A3.334,3.334,0,0,0,39.667,33.323Zm-24.933-12.5a.208.208,0,0,0-.021-.033,1.242,1.242,0,0,1-.035-1.415,1.331,1.331,0,0,1,1-.653c.023,0,.044,0,.065,0,.072.01.294.037.466.553a37.752,37.752,0,0,1,1.469,5.76A31.219,31.219,0,0,1,14.734,20.819Zm-.293,24.662a1.538,1.538,0,0,1-1.487.636,1.087,1.087,0,0,1-.875-.6,1.261,1.261,0,0,1,.342-1.11,34.018,34.018,0,0,1,4.743-4.465A18.642,18.642,0,0,1,14.441,45.481Zm5.767-10.105a35.438,35.438,0,0,0,.172-4.66c.172.146.346.286.522.425a29.958,29.958,0,0,0,3.294,2.29A36.085,36.085,0,0,0,20.208,35.376Zm17.449.013c-.06.078-.248.315-.832.226a35.345,35.345,0,0,1-6.013-1.455c-.284-.1-.568-.2-.85-.3a25.841,25.841,0,0,1,6.384-.512,1.492,1.492,0,0,1,1.384.841A1.226,1.226,0,0,1,37.657,35.389Z"/></g></g></svg>