<?xml version="1.0" encoding="iso-8859-1"?>
<!-- Generator: Adobe Illustrator 21.0.2, SVG Export Plug-In . SVG Version: 6.00 Build 0)  -->
<svg xmlns="http://www.w3.org/2000/svg" xmlns:xlink="http://www.w3.org/1999/xlink" version="1.1" id="Layer_1" x="0px" y="0px" viewBox="0 0 80 80" style="enable-background:new 0 0 80 80;" xml:space="preserve" width="240px" height="240px">
<path style="fill:none;stroke:#000000;stroke-width:2;stroke-miterlimit:10;" d="M6,15v52h68V15H6z"/>
<path style="fill:none;stroke:#000000;stroke-width:2;stroke-miterlimit:10;" d="M14,23v36h52V23H14z"/>
<polyline style="fill:none;stroke:#000000;stroke-width:2;stroke-miterlimit:10;" points="14,48 30,37 56,59 "/>
<polyline style="fill:none;stroke:#000000;stroke-width:2;stroke-miterlimit:10;" points="65.999,51 50,39 41,46 "/>
<circle cx="59" cy="35" r="1"/>
<circle cx="59" cy="41" r="1"/>
<circle cx="63" cy="41" r="1"/>
<circle cx="63" cy="47" r="1"/>
<circle cx="55" cy="41" r="1"/>
<circle cx="61" cy="44" r="1"/>
<circle cx="65" cy="44" r="1"/>
<circle cx="43" cy="41" r="1"/>
<circle cx="39" cy="41" r="1"/>
<circle cx="37" cy="38" r="1"/>
<circle cx="37" cy="32" r="1"/>
<circle cx="55" cy="35" r="1"/>
<circle cx="51" cy="35" r="1"/>
<circle cx="47" cy="35" r="1"/>
<circle cx="43" cy="35" r="1"/>
<circle cx="39" cy="35" r="1"/>
<circle cx="63" cy="35" r="1"/>
<circle cx="57" cy="32" r="1"/>
<circle cx="65" cy="38" r="1"/>
<circle cx="61" cy="38" r="1"/>
<circle cx="57" cy="38" r="1"/>
<circle cx="53" cy="38" r="1"/>
<circle cx="49" cy="38" r="1"/>
<circle cx="45" cy="38" r="1"/>
<circle cx="41" cy="38" r="1"/>
<circle cx="41" cy="32" r="1"/>
<circle cx="31" cy="35" r="1"/>
<circle cx="27" cy="35" r="1"/>
<circle cx="23" cy="35" r="1"/>
<circle cx="19" cy="35" r="1"/>
<circle cx="15" cy="35" r="1"/>
<circle cx="35" cy="35" r="1"/>
<circle cx="53" cy="32" r="1"/>
<circle cx="33" cy="38" r="1"/>
<circle cx="41" cy="44" r="1"/>
<circle cx="35" cy="41" r="1"/>
<circle cx="23" cy="41" r="1"/>
<circle cx="19" cy="41" r="1"/>
<circle cx="17" cy="44" r="1"/>
<circle cx="25" cy="32" r="1"/>
<circle cx="25" cy="38" r="1"/>
<circle cx="15" cy="41" r="1"/>
<circle cx="21" cy="32" r="1"/>
<circle cx="21" cy="38" r="1"/>
<circle cx="17" cy="38" r="1"/>
</svg>
