<svg id="Ebene_1" data-name="Ebene 1" xmlns="http://www.w3.org/2000/svg" width="1000" height="1000" viewBox="0 0 1000 1000">
  <defs>
    <style>
      .cls-1 {
        fill: #495057;
      }
    </style>
  </defs>
  <title>web_video_grey</title>
  <g>
    <path class="cls-1" d="M391.2,649.9l245-122.5c22.5-11.3,22.5-43.5,0-54.8l-245-122.5a30.586,30.586,0,0,0-44.3,27.4v245A30.621,30.621,0,0,0,391.2,649.9Z"/>
    <path class="cls-1" d="M898.4,132.5H101.6C51.2,132.5,10,174,10,224.8V775.1c0,51,40.9,92.4,91.6,92.4H898.5c50.4,0,91.6-41.5,91.6-92.4V224.8C990,173.8,949.1,132.5,898.4,132.5ZM193.8,775.3c0,17.1-13.1,30.9-30.9,30.9H102.3c-17.1,0-30.9-13.1-30.9-30.9V714.7c0-17.1,13.1-30.9,30.9-30.9H163a30.48,30.48,0,0,1,30.9,30.9v60.6Zm0-245c0,17.1-13.1,30.9-30.9,30.9H102.3c-17.1,0-30.9-13.1-30.9-30.9V469.7c0-17.1,13.1-30.9,30.9-30.9H163a30.48,30.48,0,0,1,30.9,30.9v60.6Zm0-245c0,17.1-13.1,30.9-30.9,30.9H102.3c-17.1,0-30.9-13.1-30.9-30.9V224.7c0-17.1,13.1-30.9,30.9-30.9H163a30.48,30.48,0,0,1,30.9,30.9v60.6ZM745,806.3H255V193.8H745Zm183.8-31c0,17.1-13.1,30.9-30.9,30.9H837.2a30.48,30.48,0,0,1-30.9-30.9V714.7c0-17.1,13.1-30.9,30.9-30.9h60.7a30.48,30.48,0,0,1,30.9,30.9Zm0-245c0,17.1-13.1,30.9-30.9,30.9H837.2a30.48,30.48,0,0,1-30.9-30.9V469.7c0-17.1,13.1-30.9,30.9-30.9h60.7a30.48,30.48,0,0,1,30.9,30.9Zm0-245c0,17.1-13.1,30.9-30.9,30.9H837.2a30.48,30.48,0,0,1-30.9-30.9V224.7c0-17.1,13.1-30.9,30.9-30.9h60.7a30.48,30.48,0,0,1,30.9,30.9Z"/>
  </g>
</svg>
