<svg id="Ebene_1" data-name="Ebene 1" xmlns="http://www.w3.org/2000/svg" width="979.945" height="915.775" viewBox="0 0 979.945 915.775">
  <defs>
    <style>
      .cls-1 {
        fill: #495057;
      }
    </style>
  </defs>
  <title>web_link_grey</title>
  <path class="cls-1" d="M964.4,471.6a87.455,87.455,0,0,0-123.6,0L747.5,565a87.434,87.434,0,0,0-17.3,98.9L696,698a87.6,87.6,0,0,0-98.9,17.3l-93.4,93.4A87.4,87.4,0,0,0,627.3,932.3l93.3-93.4a87.563,87.563,0,0,0,15.3-103L768,703.8a87.668,87.668,0,0,0,103.1-15.2l93.4-93.4A87.546,87.546,0,0,0,964.4,471.6ZM692.2,810.4l-93.3,93.4a47.093,47.093,0,1,1-66.6-66.6l93.3-93.3a46.947,46.947,0,0,1,38.1-13.5l-24.9,24.9a27.506,27.506,0,0,0,38.9,38.9L704.9,767A47.457,47.457,0,0,1,692.2,810.4ZM935.9,566.7,842.6,660a46.7,46.7,0,0,1-43.4,12.6L816,655.8a27.506,27.506,0,0,0-38.9-38.9l-14.6,14.5a46.628,46.628,0,0,1,13.5-38L869.4,500a47.093,47.093,0,1,1,66.5,66.7ZM455.5,879.4a132.226,132.226,0,0,0,16.4,58.8c-119.9,4.1-226.3-35.1-317-118C72,744.5,25.4,649.4,12.8,538-13.7,304.6,153.8,85.2,385.5,49.7c22.6-3.5,45.4-5.1,68.1-7.6h4.8c24.3,2.5,48.9,3.6,72.9,7.8,120.5,21,217,81.3,289.1,179.9,39.3,53.8,65.4,113.4,76.8,178a131.76,131.76,0,0,0-66.4,35.8L789.6,485a73.2,73.2,0,0,1-3.8-21c-.8-20.8-4.3-25.1-25.6-29.8-22.3-4.9-29.5-14.9-23.2-36.9,4.2-14.7,11.1-28.6,17.4-42.6,6.5-14.6,10.9-29,7.6-45.7-3-14.9-2.6-30.2,11.1-42.7-12.7-14.5-24.5-28.5-37-41.8-5.9-6.2-10.9-4-12.7,4.8-.4,2.1-.4,4.4-.9,6.5-4.6,19.5-16.7,24-32.4,12.1-2.6-2-4.9-4.8-7.9-5.9-5-1.7-10.6-4-15.5-3.1-17,2.9-19.7.8-18.2-16,1.1-11.9-3.1-16.3-14.8-15.8-4,.2-8,1-12.1,1.1-12.7.2-20.7-9.4-17.5-21.7,1.6-6.3,5.1-12.2,6.7-18.6,1.2-4.7,2.6-12.1.2-14.4-9.7-9.5-20.2-18.7-31.6-25.9-20.7-13-41.5-3.5-62.1,1.3-2.2,16.8-4.5,19-20.5,14.3-19-5.7-37.1-13.6-50.1-30a10.381,10.381,0,0,0-8.1-3.4q-29.4,3.3-58.8,7.8c-2.8.5-7.2,4.2-7.2,6.4.1,3.8,2.6,10.2,4.9,10.7,6.3,1.1,13.7,1.1,19.6-1.2,8.1-3.1,15-9.2,22.8-13.2,9.5-4.7,16.4-1.2,19.1,9,3.2,12.2-1.1,22.5-11,28.8-13.5,8.6-28.3,15.1-42.3,23-9.8,5.5-19.9,10.9-28.6,17.9-7,5.6-11.9,14.4-6.3,23.4,5.2,8.4,14.4,6.4,22,3.7,7.8-2.8,15.2-6.8,22.5-10.9,4.4-2.5,8.1-6.4,12.4-9,8.7-5.3,13.3-3.5,16.6,5.9,5.6,15.9,16.2,19.5,30.4,10.3,6.2-4,11.7-9,18.1-12.5,9.5-5.1,19.6.3,20.5,10.3,1.3,14.5,4.7,17.4,19.1,15.8,8.5-1,17-2.2,25.5-3.4.8.9,1.5,1.7,2.2,2.6-3,5.5-4.7,12.6-9.2,16.2-6.9,5.6-15.5,9.6-23.8,13.2-12.1,5.2-23,8.3-23.4,9,0,0,17,6.9,8,9.4-14.8,4.2-37.1,28.1-5,18.2,5.8-1.8,11.6-3.2,19.7-5.4-6.8,20.3-21,28.3-35.2,35.9-42.3,22.6-43.8,76.9-22.2,104.7a106.442,106.442,0,0,1,11.9,19.7c3.8,7.9,3.6,17.5-4.1,21.6-5.1,2.8-15.4,2.2-20-1.3a172.666,172.666,0,0,1-29.9-29.9c-11.1-14-19.1-30.6-30.9-44-38-43-80.9-33.6-117.7-1.2-9.3,8.2-8.1,15.6,2.2,22.4a61.483,61.483,0,0,0,11.7,6c16.3,6.6,32.7,12.9,49,19.5a35.767,35.767,0,0,1,9.6,5.2c5.7,4.5,6,9.4-1.4,12.3a120.665,120.665,0,0,1-16.9,4.7c-10.7,2.3-22,3-32,7-5.8,2.4-12.4,9.5-13.2,15.3-.7,4.9,5.8,11.6,10.5,16.1,3.5,3.3,9.3,4,13.7,6.7,6,3.7,12.5,7.2,17.2,12.3,7.9,8.6,13.5,10.7,23.8,5,9.9-5.5,19.4-11.7,29-17.8,11.3-7.2,13.5-6.3,20,5.3,8.1,14.4,19.3,26.3,37.5,23.1,13-2.3,25.3-8.3,38-12.6,8.6-2.9,17.1-7.2,25.9-8.2,18.1-2.2,32,13.2,33,34.4s-8.8,37.1-23.8,50.9c-14.7,13.5-22.6,29-15.8,50,7.2,22.3-.5,41.5-17.5,56.3-11.9,10.3-25,19.3-38,28.1-15.3,10.3-40.8,66.6-35.2,86.5,1.1,3.7,1.4,4.2,1.1,8.2-1.5,21.2-12.3,17.4-31.2,20.7-10.7,1.9-9.6-20.7-12.1-31.1-2.3-9.9-2.3-21-.8-31.1,1.5-10,6.2-19.5,9.6-29.1,7.2-20.2,2-37.5-12.9-52.2-6.5-6.4-13.6-12.3-20.3-18.5-24.3-22.7-36.1-51.3-37.4-84.1-.6-16.5,7.5-24,23.8-25.5,3.4-.3,6.8-.8,10.2-1.2-1.9-13.7-6.9-18.9-20.3-19.8-12.7-.8-20.1-8-25-18.4-2.3-4.9-2.7-10.6-4.6-15.7-4.6-12.1-7.8-25.3-15-35.8-6.4-9.5-11.7-17.6-11.5-29.6.1-5.6-3.9-12.1-7.8-16.8-8.9-10.5-18.7-20.2-28.4-30-3.8-3.8-8.4-6.9-14.7-12-.4,9.6-.4,15.8-1,22-.9,8.7-1,17.8-3.8,25.9-1.6,4.5-8.2,10.5-12,10.2-4.8-.5-11.8-5.9-13.1-10.6a60.085,60.085,0,0,1-1.2-27c8.4-40.5,12-81.2,7.3-122.4-1.7-15.1-3.8-30.1-5.9-46.9-79.1,93.1-117,262.2-39.2,411.6C186.8,800.1,316.1,877.5,455.5,879.4Z" transform="translate(-10.042 -42.1)"/>
</svg>
