<svg id="Ebene_1" data-name="Ebene 1" xmlns="http://www.w3.org/2000/svg" width="1000" height="1000" viewBox="0 0 1000 1000">
  <defs>
    <style>
      .cls-1 {
        fill: #495057;
      }
    </style>
  </defs>
  <title>web_pdf_grey</title>
  <g>
    <path class="cls-1" d="M359.15,11.47c-22.29,4.5-61.77,28.23-104.32,62.79-27.61,22.5-92.45,87.34-114.95,114.95-36.2,44.59-58.7,82.43-63,106.57-1.43,7.77-1.84,107.59-1.43,298.63.41,269.79.82,287.99,4.3,299.45,10.64,35.38,37.43,67.5,68.73,82.43,30.68,14.52,13.5,13.7,287.38,13.7,233.79,0,248.31-.2,260.79-3.68,43.98-12.48,81.61-49.91,92.86-92.45,1.84-6.75,3.88-24.54,4.7-39.48l1.23-27H729.78l-.82,25.98c-.61,22.5-1.43,27.41-5.52,35.39a73.433,73.433,0,0,1-29.86,30.27l-10.23,5.52-246.27.61-246.27.41-11.45-5.11a69.657,69.657,0,0,1-32.52-30.68l-5.52-10.23-.62-287.58-.41-287.79,59.73-1.02c66.68-1.02,73.23-2.05,98.79-15.34,19.43-10.02,44.59-35.18,54.61-54.61,13.3-25.57,14.32-32.11,15.34-98.79l1.02-59.73,156.88.41,156.68.61,10.23,5.52a68.7,68.7,0,0,1,30.48,32.32l5.32,11.25v342.6h65.66l-.82-174.47c-.61-193.7.2-181.22-14.93-212.11-10.02-20.25-34.57-45-55.02-55.64C694.6,9.83,703.8,10.44,526.88,10.03,438.92,9.83,364.26,10.45,359.15,11.47Z"/>
    <path class="cls-1" d="M320.49,503.39c-14.32,3.88-22.7,9-32.73,20.45-15.34,17.59-15.55,18.41-15.55,123.54,0,109.02-.21,107.38,19.23,127.02,21.07,20.86-6.54,19.23,307.01,19.23s285.95,1.64,307.01-19.23c19.43-19.64,19.23-18,19.23-127.02S924.9,540,905.47,520.37c-21.06-21.07,7.37-19.23-302.92-19.64C369.99,500.32,329.9,500.73,320.49,503.39ZM472.67,571.3c19.84,9.2,27.41,21.27,27.61,43.36,0,16.77-5.73,29.25-17.39,37.43-12.48,8.59-27.2,11.66-56.66,11.66H400.05V729.2H369.37V565.16l46.63.82C459.37,566.59,463.05,567,472.67,571.3Zm163.02-3.48c15.95,3.27,34.98,13.09,42.54,21.68a89.663,89.663,0,0,1,12.07,19.02c4.91,10.23,5.32,13.5,5.32,37.84,0,24.75-.41,27.41-5.73,38.86-10.02,21.48-26.18,34.16-51.95,40.91-8.79,2.25-23.52,3.07-58.29,3.07H533.01V565.56h46.02C604.6,565.57,629.55,566.59,635.69,567.82Zm224.58,11.05v13.29H758v38.86h92.04v26.59H758V729.2H729.36V565.56h130.9v13.31Z"/>
    <path class="cls-1" d="M400.06,614.87v22.7l27.2-.82c31.09-.82,36.61-2.86,40.09-15.14,3.07-11.04-1.02-21.27-10.02-25.77-5.73-2.86-12.48-3.68-32.11-3.68H400.06v22.71Z"/>
    <path class="cls-1" d="M565.73,647.39v55.23h27.2c31.29,0,44.79-3.07,55.43-12.48,9.21-7.98,14.11-22.5,14.11-42.54,0-20.86-3.48-32.11-12.68-41.32-10.84-11.05-23.52-14.11-56.86-14.11h-27.2Z"/>
  </g>
</svg>
