<svg xmlns="http://www.w3.org/2000/svg" width="19.07mm" height="12.017mm" viewBox="0 0 54.057 34.065">
  <defs>
    <style>
      .cls-1 {
        fill: none;
        stroke: #da2229;
        stroke-miterlimit: 10;
      }
    </style>
  </defs>
  <title>wie-funktioniert-es-icon - größer</title>
  <g id="Ebene_2" data-name="Ebene 2">
    <g id="Ebene_1-2" data-name="Ebene 1">
      <g>
        <path class="cls-1" d="M34.959,12.081H33.653a6.631,6.631,0,0,0-.843-2.457l1.038-1.038a.124.124,0,0,0,0-.175L32.174,6.737a.124.124,0,0,0-.175,0l-.923.924a6.665,6.665,0,0,0-2.334-1.143V5.052a.124.124,0,0,0-.124-.123H26.251a.123.123,0,0,0-.124.123V6.358A6.655,6.655,0,0,0,23.67,7.2L22.632,6.164a.121.121,0,0,0-.174,0L20.784,7.838a.121.121,0,0,0,0,.174l.923.924a6.637,6.637,0,0,0-1.142,2.334H19.1a.123.123,0,0,0-.123.123v2.368a.123.123,0,0,0,.123.123H20.4a6.656,6.656,0,0,0,.844,2.457L20.21,17.379a.124.124,0,0,0,0,.175l1.674,1.674a.124.124,0,0,0,.175,0l.923-.924a6.657,6.657,0,0,0,2.334,1.143v1.466a.123.123,0,0,0,.123.123h2.368a.123.123,0,0,0,.123-.123V19.607a6.648,6.648,0,0,0,2.457-.843L31.425,19.8a.123.123,0,0,0,.175,0l1.674-1.674a.123.123,0,0,0,0-.174l-.923-.924A6.672,6.672,0,0,0,33.493,14.7h1.466a.124.124,0,0,0,.124-.123V12.2A.124.124,0,0,0,34.959,12.081Zm-7.93,4.327a3.426,3.426,0,1,1,3.426-3.426A3.426,3.426,0,0,1,27.029,16.408Z"/>
        <rect class="cls-1" x="7.081" y="0.5" width="39.895" height="24.965"/>
        <polygon class="cls-1" points="52.85 33.565 1.207 33.565 7.081 27.691 46.976 27.691 52.85 33.565"/>
        <line class="cls-1" x1="24" y1="31.484" x2="30.058" y2="31.484"/>
      </g>
    </g>
  </g>
</svg>
