<svg xmlns="http://www.w3.org/2000/svg" width="50" height="50" viewBox="0 0 50 50"><defs><style>.cls-1{fill:#da2128;}</style></defs><title>world</title><g id="Ebene_2" data-name="Ebene 2"><g id="Ebene_1-2" data-name="Ebene 1"><path class="cls-1" d="M45.862,29.753A6.447,6.447,0,0,0,39.583,33a6.378,6.378,0,0,0-6.164-3.2c-2.055.334-4.252,2.094-4.252,6.033,0,8.433,9.5,13.81,9.91,14.036a1.052,1.052,0,0,0,1.013,0c.4-.226,9.91-5.609,9.91-14.453C50,32.383,48.376,30.159,45.862,29.753ZM39.581,47.74c-1.88-1.186-8.331-5.707-8.331-11.906,0-2.234.936-3.721,2.5-3.976a2.879,2.879,0,0,1,.458-.036c1.595,0,3.5,1.271,4.385,3.924a1.085,1.085,0,0,0,1.977,0c.985-2.954,3.247-4.217,4.956-3.937,1.5.243,2.389,1.591,2.389,3.608C47.917,41.954,41.457,46.545,39.581,47.74Z"/><path class="cls-1" d="M50,23.914A24.885,24.885,0,0,0,35.758,2.433,25.668,25.668,0,0,0,26.911.114a1.035,1.035,0,0,0-.8-.048C25.74.048,25.371,0,25,0s-.76.039-1.141.056a1.036,1.036,0,0,0-.747.037A25,25,0,0,0,.033,23.7c0,.034,0,.067,0,.1A1.066,1.066,0,0,0,0,23.958a1,1,0,0,0,.031.154A24.8,24.8,0,0,0,3,36.853c0,.013.013.024.019.036a25.109,25.109,0,0,0,3.4,4.859A24.852,24.852,0,0,0,23.7,50a.5.5,0,0,0,.055,0,1.02,1.02,0,0,0,.564-.187c.019-.013.042-.007.06-.021s.024-.03.04-.044a1.047,1.047,0,0,0,.15-.168,1.108,1.108,0,0,0,.1-.139,2.209,2.209,0,0,0,.114-.383.369.369,0,0,0,.011-.045.874.874,0,0,0-.02-.136,1.034,1.034,0,0,0-.032-.221,1.045,1.045,0,0,0-.088-.185.9.9,0,0,0-.065-.137A51.6,51.6,0,0,1,18.279,37.5H25a1.042,1.042,0,1,0,0-2.083H17.446A35.125,35.125,0,0,1,15.328,25h33.63c.008,0,.015,0,.023,0S49,25,49,25a1.016,1.016,0,0,0,.2-.049,1.115,1.115,0,0,0,.179-.044,4.787,4.787,0,0,0,.326-.229,1.047,1.047,0,0,0,.117-.175.932.932,0,0,0,.1-.159,1.026,1.026,0,0,0,.045-.223A.981.981,0,0,0,50,23.958c0-.007,0-.012,0-.019S50,23.922,50,23.914Zm-47.8-1A22.805,22.805,0,0,1,5.822,12.5h9.445a32.361,32.361,0,0,0-1.951,10.417ZM17.408,12.5H32.552a31.121,31.121,0,0,1,1.993,10.417H15.3A29.882,29.882,0,0,1,17.408,12.5Zm17.345,0h9.479A22.79,22.79,0,0,1,47.8,22.917H36.627A33.214,33.214,0,0,0,34.753,12.5Zm7.918-2.083H33.947a33.089,33.089,0,0,0-4.8-7.907,23.486,23.486,0,0,1,5.722,1.807A22.815,22.815,0,0,1,42.671,10.417ZM26.047,2.146a31.17,31.17,0,0,1,5.611,8.271H18.35a35.611,35.611,0,0,1,5.628-8.284c.34-.015.675-.05,1.018-.05S25.7,2.129,26.047,2.146Zm-5.067.308a35.831,35.831,0,0,0-4.874,7.963H7.352A22.9,22.9,0,0,1,20.98,2.454Zm.614,45.239A22.759,22.759,0,0,1,7.965,40.356,23.074,23.074,0,0,1,5.8,37.5h10.27A50.683,50.683,0,0,0,21.594,47.693ZM15.316,35.417H4.591A22.733,22.733,0,0,1,2.107,25H13.343A37.411,37.411,0,0,0,15.316,35.417Z"/></g></g></svg>